<svg viewBox="0 0 100 60" width="100" height="60" xmlns="http://www.w3.org/2000/svg">
  <g>
    <!-- Cloud outline -->
    <path
      d="M 75 40 C 80 40, 84 36, 84 31 C 84 26, 80 22, 75 22 C 74 16, 68 12, 61 12 C 56 12, 52 14, 49 17 C 46 13, 41 10, 35 10 C 27 10, 20 17, 20 25 C 20 26, 20 27, 21 28 C 17 29, 14 33, 14 37 C 14 42, 18 46, 23 46 L 70 46 C 73 46, 75 44, 75 41 Z"
      fill="white"
      stroke="#3b82f6"
      strokeWidth="3"
      strokeLinecap="round"
      strokeLinejoin="round"
    />
    <!-- Left eye -->
    <circle cx="35" cy="30" r="2" fill="#3b82f6" />
    <!-- Right eye -->
    <circle cx="55" cy="30" r="2" fill="#3b82f6" />
    <!-- Cute smile -->
    <path
      d="M 40 35 Q 45 38, 50 35"
      fill="none"
      stroke="#3b82f6"
      strokeWidth="2"
      strokeLinecap="round"
    />
  </g>
</svg> 